<?xml version="1.0" encoding="iso-8859-1"?>
<!-- Generator: Adobe Illustrator 19.0.0, SVG Export Plug-In . SVG Version: 6.00 Build 0)  -->
<svg version="1.1" id="Capa_1" xmlns="http://www.w3.org/2000/svg" xmlns:xlink="http://www.w3.org/1999/xlink" x="0px" y="0px"
	 viewBox="0 0 487.23 487.23" style="enable-background:new 0 0 487.23 487.23;" xml:space="preserve">
<g>
	<g>
		<g>
			<path d="M243.615,147.615c4.418,0,8-3.582,8-8v-128c0-4.418-3.582-8-8-8s-8,3.582-8,8v128
				C235.615,144.033,239.197,147.615,243.615,147.615z"/>
			<path d="M164.679,162.903c1.43,2.478,4.075,4.003,6.936,4c1.402-0.001,2.778-0.371,3.992-1.072
				c3.826-2.209,5.137-7.102,2.928-10.928l-64-110.848c-0.017-0.031-0.035-0.061-0.053-0.092c-2.234-3.812-7.136-5.09-10.947-2.856
				c-3.812,2.234-5.09,7.136-2.856,10.947L164.679,162.903z"/>
			<path d="M118.895,219.615c2.858,0,5.499-1.525,6.928-4c2.209-3.826,0.899-8.719-2.928-10.928l-110.848-64
				c-0.03-0.018-0.061-0.035-0.092-0.053c-3.841-2.184-8.725-0.841-10.909,3s-0.841,8.725,3,10.909l110.848,64
				C116.11,219.248,117.49,219.618,118.895,219.615z"/>
			<path d="M486.131,143.543c-2.234-3.812-7.136-5.09-10.947-2.856l-110.848,64c-2.475,1.429-4,4.07-4,6.928c0,4.418,3.581,8,8,8
				c1.405,0.003,2.785-0.367,4-1.072l110.848-64c0.031-0.017,0.061-0.035,0.092-0.053
				C487.086,152.256,488.365,147.354,486.131,143.543z"/>
			<path d="M315.615,166.903c2.861,0.003,5.506-1.522,6.936-4l64-110.848c0.018-0.031,0.036-0.062,0.054-0.093
				c2.183-3.841,0.84-8.725-3.002-10.908c-3.841-2.183-8.725-0.84-10.908,3.002l-64,110.848c-0.701,1.214-1.07,2.59-1.072,3.992
				C307.619,163.313,311.197,166.899,315.615,166.903z"/>
			<path d="M407.047,402.695c-3.621-9.122-12.45-15.102-22.264-15.08h-5.76l-8.608-112c-4.406-54.066-49.452-95.768-103.696-96
				h-46.208c-54.244,0.232-99.29,41.934-103.696,96l-8.608,112h-5.76c-9.825-0.031-18.667,5.955-22.288,15.088l-28,69.944
				c-1.639,4.103,0.358,8.758,4.461,10.397c0.953,0.381,1.969,0.574,2.995,0.571h368c4.418,0.002,8.001-3.579,8.003-7.997
				c0-1.018-0.193-2.026-0.571-2.971L407.047,402.695z M132.775,276.871c3.71-45.758,41.828-81.061,87.736-81.256h46.208
				c45.908,0.195,84.026,35.498,87.736,81.256l8.52,110.744h-238.72L132.775,276.871z M71.431,467.615l23.592-58.968
				c1.202-3.046,4.149-5.043,7.424-5.032h282.336c3.269,0.001,6.208,1.99,7.424,5.024l23.592,58.976H71.431z"/>
			<path d="M243.615,211.615c-4.418,0-8,3.582-8,8v112c0,4.418,3.582,8,8,8s8-3.582,8-8v-112
				C251.615,215.197,248.033,211.615,243.615,211.615z"/>
			<path d="M243.615,347.615c-4.418,0-8,3.582-8,8v8c0,4.418,3.582,8,8,8s8-3.582,8-8v-8
				C251.615,351.197,248.033,347.615,243.615,347.615z"/>
		</g>
	</g>
</g>
<g>
</g>
<g>
</g>
<g>
</g>
<g>
</g>
<g>
</g>
<g>
</g>
<g>
</g>
<g>
</g>
<g>
</g>
<g>
</g>
<g>
</g>
<g>
</g>
<g>
</g>
<g>
</g>
<g>
</g>
</svg>
